<?xml version="1.0" encoding="UTF-8" standalone="no"?>
<svg width="215.9mm" height="279.4mm" viewBox="0 0 215.9 279.4" version="1.1" id="svg5" xmlns="http://www.w3.org/2000/svg" xmlns:svg="http://www.w3.org/2000/svg">
<g id="checkers">
<rect width="25" height="25" x="7.950000000000003" y="2.1999999999999886"></rect>
<rect width="25" height="25" x="57.95" y="2.1999999999999886"></rect>
<rect width="25" height="25" x="107.95" y="2.1999999999999886"></rect>
<rect width="25" height="25" x="157.95" y="2.1999999999999886"></rect>
<rect width="25" height="25" x="32.95" y="27.19999999999999"></rect>
<rect width="25" height="25" x="82.95" y="27.19999999999999"></rect>
<rect width="25" height="25" x="132.95" y="27.19999999999999"></rect>
<rect width="25" height="25" x="182.95" y="27.19999999999999"></rect>
<rect width="25" height="25" x="7.950000000000003" y="52.19999999999999"></rect>
<rect width="25" height="25" x="57.95" y="52.19999999999999"></rect>
<rect width="25" height="25" x="107.95" y="52.19999999999999"></rect>
<rect width="25" height="25" x="157.95" y="52.19999999999999"></rect>
<rect width="25" height="25" x="32.95" y="77.19999999999999"></rect>
<rect width="25" height="25" x="82.95" y="77.19999999999999"></rect>
<rect width="25" height="25" x="132.95" y="77.19999999999999"></rect>
<rect width="25" height="25" x="182.95" y="77.19999999999999"></rect>
<rect width="25" height="25" x="7.950000000000003" y="102.19999999999999"></rect>
<rect width="25" height="25" x="57.95" y="102.19999999999999"></rect>
<rect width="25" height="25" x="107.95" y="102.19999999999999"></rect>
<rect width="25" height="25" x="157.95" y="102.19999999999999"></rect>
<rect width="25" height="25" x="32.95" y="127.19999999999999"></rect>
<rect width="25" height="25" x="82.95" y="127.19999999999999"></rect>
<rect width="25" height="25" x="132.95" y="127.19999999999999"></rect>
<rect width="25" height="25" x="182.95" y="127.19999999999999"></rect>
<rect width="25" height="25" x="7.950000000000003" y="152.2"></rect>
<rect width="25" height="25" x="57.95" y="152.2"></rect>
<rect width="25" height="25" x="107.95" y="152.2"></rect>
<rect width="25" height="25" x="157.95" y="152.2"></rect>
<rect width="25" height="25" x="32.95" y="177.2"></rect>
<rect width="25" height="25" x="82.95" y="177.2"></rect>
<rect width="25" height="25" x="132.95" y="177.2"></rect>
<rect width="25" height="25" x="182.95" y="177.2"></rect>
<rect width="25" height="25" x="7.950000000000003" y="202.2"></rect>
<rect width="25" height="25" x="57.95" y="202.2"></rect>
<rect width="25" height="25" x="107.95" y="202.2"></rect>
<rect width="25" height="25" x="157.95" y="202.2"></rect>
<rect width="25" height="25" x="32.95" y="227.2"></rect>
<rect width="25" height="25" x="82.95" y="227.2"></rect>
<rect width="25" height="25" x="132.95" y="227.2"></rect>
<rect width="25" height="25" x="182.95" y="227.2"></rect>
<rect width="25" height="25" x="7.950000000000003" y="252.2"></rect>
<rect width="25" height="25" x="57.95" y="252.2"></rect>
<rect width="25" height="25" x="107.95" y="252.2"></rect>
<rect width="25" height="25" x="157.95" y="252.2"></rect>

</g>
</svg>
