<svg xmlns="http://www.w3.org/2000/svg" width="360" height="360"><path fill="#FFF" d="M264.274 162.517c3.98-10.77 9.432-25.52 32.907-62.235 20.425-31.946 14.005-52.542 13.723-53.403l-.75-2.278-2.348.493c-.323.068-6.65 1.515-9.22 10.547l-1.959.257c-.34.045-8.362 1.234-9.64 13.271-.042.404-.093.807-.148 1.209a12.823 12.823 0 00-.433-.847l-1.76-3.098-2.489 2.55c-4.312 4.417-4.318 7.833-4.325 11.137-.007 3.896-.016 8.312-7.671 17.706-1.368 1.678-2.681 3.218-3.949 4.708-5.88 6.897-10.957 12.854-16.273 26.13-5.619 14.027-6.854 15.084-18.679 25.208a815.2 815.2 0 00-8.365 7.235c-18.735 16.462-27.839 28.761-31.704 34.852-11.128-18.943-20.699-30.363-27.813-38.851-7.629-9.104-12.67-15.118-15-24.276-1.847-7.256-2.575-12.554-3.159-16.812-1.149-8.37-1.909-13.899-9.414-23.747-15.09-19.795-7.997-33.241-7.696-33.788l5.061-8.907-8.773 5.288c-7.26 4.374-11.164 12.146-11.292 22.476l-.003.514C96.974 47.703 95.644 17.523 95.631 17.185l-.192-5.096-4.088 3.047c-8.159 6.081-11.892 15.62-10.97 27.827-.435-2.246-.597-3.464-.603-3.51l-.786-6.16-3.943 4.795c-6.699 8.145-8.395 20.24-4.904 34.979 2.072 8.754 5.344 15.926 6.618 18.536a38.743 38.743 0 00-1.438 6.273c-8.223-16.48-12.595-29.897-12.646-30.055l-1.726-5.346-3.07 4.706c-8.371 12.837.119 34.848 7.423 49.194-3.665-3.83-7.542-8.604-10.593-14.094l-2.406-4.332-2.309 4.385c-.372.708-8.742 17.69 24.219 49.342 2.838 2.725 4.669 5.236 5.838 7.235-3.096-1.39-7.251-4.088-11.137-9.301l-3.933-5.277-.873 6.523c-.071.528-1.291 11.151 11.676 22.981a21.314 21.314 0 01-2.323-1.312l-5.399-3.503 1.316 6.3c.077.365 1.684 7.434 12.373 14.307-2.2 1.152-3.009 2.984-3.304 4.262-.656 2.84.433 5.364 2.151 7.405-2.83 1.384-3.19 4.097-3.22 5.119-.06 2.063 1.034 3.631 2.659 4.765-.854 1.083-1.389 2.479-1.349 4.237.072 3.153 2.312 5.029 4.954 6.072-.636 1.207-.928 2.669-.567 4.389.532 2.525 2.318 4.317 4.863 5.016-.428 1.759-.117 3.581.9 5.275 1.04 1.733 2.576 2.891 4.433 3.375-.218 1.439.087 2.903.897 4.268 1.102 1.854 2.916 2.937 5.146 3.084.177 1.333.845 3.109 2.814 4.888 1.401 1.267 3.063 1.973 4.823 2.057.183 1.191.743 2.403 1.912 3.472 1.08.985 2.438 1.506 3.927 1.506.191 0 .379-.009.565-.024.344.962.982 1.924 2.022 2.811 1.15.979 2.49 1.497 3.874 1.497.214 0 .423-.013.627-.035.431.973 1.161 1.838 2.26 2.459a4.931 4.931 0 002.458.654c.57 0 1.109-.097 1.611-.257.601.783 1.53 1.581 2.967 2.197a6.12 6.12 0 002.423.509 6.152 6.152 0 003.064-.833c1.042.793 2.464 1.535 4.25 1.699-2.588 2.633-6.121 5.324-10.111 8.365-10.744 8.188-25.458 19.402-35.382 40.304-2.747 5.787-3.114 10.461-1.094 13.895 1.339 2.273 3.513 3.524 5.391 4.139.544 3.726 3.107 8.792 10.418 10.844 1.813.508 3.638.767 5.423.767 6.838 0 11.536-3.705 13.538-5.658.458.04.91.061 1.353.061 6.215 0 9.953-3.921 11.724-7.205 1.342.267 2.616.401 3.811.401 7.632 0 12.521-5.185 14.532-15.41.633-3.222 1.337-5.804 2.014-7.848.842 2.362 3.741 7.532 10.879 10.959-.567-1.263-.909-3.511-1.017-4.939 1.017 1.334 2.774 4.526 13.066 10.464.24.139.522-.117.39-.361a278.556 278.556 0 01-4.225-8.093c-1.272-2.506-.837-4.827-.161-6.44 2.586 1.887 5.122 2.84 7.569 2.84 6.178 0 9.383-5.825 10.384-8.059a17.388 17.388 0 015.37-2.412c-.186 3.375.564 6.129 2.241 8.215 1.708 2.122 4.36 3.438 7.584 3.792a9.392 9.392 0 00-.494 2.214c-.641 6.478 5.74 10.857 6.012 11.04 1.556 1.063 3.55 2.356 6.119 3.653.456.23.951-.24.729-.701-1.098-2.286-2.313-5.044-2.921-6.307-.686-1.47-.599-2.646-.356-3.44.43.045.851.067 1.262.067 3.23 0 5.388-1.354 7.121-2.44 1.494-.938 2.401-1.468 3.67-1.468 1.271 0 2.92.567 4.898 1.685 5.013 2.832 8.014 6.452 9.389 8.421-1.214 1.857-2.079 4.537-.799 7.365.481 1.063.431 1.521.454 1.529-.155.137-.787.329-1.469.33-.905 0-2.836-.007-4.808-.048a.583.583 0 00-.451.965c1.32 1.516 2.657 2.954 3.14 3.539.284.321 2.907 3.136 7.308 3.136 2.804 0 5.607-1.148 8.334-3.413a13.918 13.918 0 002.232-2.321l3.237.165c.228.012.452.018.675.018 6.986 0 12.256-5.744 12.256-13.361 0-6.582-7.101-10.034-12.283-12.554-1.023-.497-1.988-.97-2.78-1.406v-10.214h-5.456l2.159-3.351c3.481-5.401 3.979-11.246 1.368-16.036-2.314-4.244-6.65-6.779-11.597-6.779-1.703 0-3.416.302-5.109.899-2.289-1.361-4.651-2.05-7.042-2.05-4.13 0-7.567 2.015-10.33 3.634-.7.41-1.41.827-2.071 1.168-.396-1.966-1.014-3.501-1.583-4.605 3.287-3.908 4.201-8.391 5.02-12.403 1.09-5.341 1.841-8.195 5.774-9.636.667-.243 1.291-.367 1.856-.367 3.836 0 6.372 6.203 8.448 12.018 2.605 7.295 5.885 8.385 7.608 8.385l.322-.006.438-.074.207-.071c1.283-.44 2.315-1.19 3.07-2.192l3.133-.523c6.976-1.165 11.807-4.056 14.359-8.591 2.881-5.118 1.907-10.809 1.169-13.517 1.922-2.721 3.063-7.377.163-15.181-4.434-11.921-17.153-26.917-25.68-27.423a8.078 8.078 0 00-.507-.016c-1.506 0-2.656.412-3.515.997a27.968 27.968 0 00-3.398-1.614c-1.559-.764-3.384-1.368-5.035-1.823 3.83-4.157 10.362-11.673 16.413-20.679 6.208-9.238 8.324-14.966 11.003-22.218z"/><path fill="#54575A" d="M251.05 183.235c15.326-22.812 4.934-23.496 43.873-84.397 19.975-31.241 13.436-51.121 13.436-51.121s-7.566 1.589-8.129 14.882c-.378 8.921-4.396 15.215-4.396 15.215 3.094-11.062 1.144-19.259 1.144-19.259s-6.254.821-7.323 10.896c-.724 6.833-3.259 13.486-3.259 13.486.908-6.403-2.317-12.083-2.317-12.083-8.257 8.459 2.65 10.884-11.837 28.664-7.61 9.338-13.518 14.418-19.813 30.141-7.019 17.523-8.024 16.114-27.763 33.458-26.585 23.361-33.469 38.211-33.469 38.211-23.966-42.293-40.442-48.305-45.415-67.838-5.434-21.349-1.271-25.379-12.107-39.595-16.481-21.623-7.894-36.737-7.894-36.737-15.708 9.466-8.208 33.329-8.208 33.329-23.196-34.435-24.621-73.203-24.621-73.203-21.348 15.911-1.994 51.961-1.994 51.961-1.208 8.66.993 17.739.993 17.739-12.487-28.598-14.832-47.195-14.832-47.195-15.033 18.277 2.541 51.609 2.541 51.609-3.222 9.063-1.732 17.161-1.732 17.161-11.681-20.946-17.8-39.914-17.8-39.914-12.083 18.529 15.372 60.14 15.372 60.14s-14.569-9.795-23.129-25.203c0 0-8.18 15.542 23.704 46.161 7.614 7.311 8.596 13.292 8.596 13.292s-9.643-.746-17.899-11.823c0 0-1.831 13.701 19.517 27.195 0 0-6.829 1.203-14.281-3.631 0 0 2.021 9.664 19.945 17.115 0 0-9.68-2.632-10.889 2.604-1.208 5.236 6.843 8.993 6.843 8.993s-7.701-1.85-7.843 3.008c-.101 3.423 6.765 4.272 6.765 4.272s-5.556.191-5.456 4.589 8.153 4.581 8.153 4.581-4.629 1.562-3.824 5.389c.807 3.825 5.685 3.507 7.599 2.702 0 0-4.578 2.735-2.161 6.762 2.417 4.029 7.452 1.612 7.452 1.612s-4.225 2.487-2.115 6.042c1.914 3.223 6.445 1.108 6.445 1.108s-2.763 2.838 1.006 6.242c3.122 2.819 6.468.426 6.468.426s-2.036 2.997.28 5.112c2.315 2.115 5.817-.606 5.817-.606s-2.091 2.521.627 4.837c2.718 2.315 5.306-.792 5.306-.792s-1.28 3.112 1.035 4.421c2.316 1.31 4.629-1.994 4.629-1.994s-1.57 2.865 2.145 4.459c2.695 1.156 4.597-1.491 4.597-1.491s4.245 6.422 10.894-.604c-3.564 14.151-33.323 20.876-49.88 55.752-6.645 13.997 4.468 14.701 4.468 14.701s-.814 7.819 8.549 10.445c10.734 3.01 17.22-5.143 17.22-5.143 9.87 1.709 12.525-7.46 12.525-7.46 8.56 2.518 14.865-.094 17.282-12.379 2.411-12.257 5.825-15.893 5.84-15.91-.302 9.465 5.741 13.595 5.741 13.595-1.41-7.251 2.69-13.083 2.69-13.083-2.92 10.371 7.077 17.311 7.077 17.311-3.223-6.343 1.577-11.694 1.577-11.694 11.502 10.93 16.427-2.921 16.427-2.921 5.337-3.926 10.694-3.815 10.694-3.815-3.222 14.702 10.342 12.446 10.342 12.446-4.128-2.619-3.38-6.902-3.38-6.902 7.452.202 6.532-5.34 6.532-5.34 5.639 3.022 8.338 5.953 8.338 5.953-23.361 9.767-8.137 20.028-8.137 20.028-2.114-4.532.691-7.537.691-7.537 9.178 2.301 8.774-7.669 19.649-1.525 8.099 4.573 11.363 10.966 11.363 10.966s-3.106 2.829-1.648 6.049c2.674 5.909-3.571 5.642-3.571 5.642s4.773 5.382 11.924-.561c7.148-5.94 1.926-14.637 1.926-14.637 2.016 0 3.776 1.079 3.776 1.079s-.407 3.746 2.131 5.213c4.047 2.335-.514 5.573-.514 5.573 5.942.303 10.113-4.423 10.113-10.667 0-6.243-9.781-9.296-14.211-11.914-4.431-2.618-4.27-3.29-11.249-5.92-14.129-5.323-20.312-15.193-20.312-15.193 4.331-2.719 7.882-2.961 7.882-2.961s.275 3.264 3.695 5.184c5.334 2.994.709 6.237.709 6.237 4.185-.461 5.304-3.329 5.304-3.329 6.144.906 2.428 5.932 2.428 5.932 9.38-2.871 4.314-12.675 4.314-12.675 3.827-1.51 3.507 5.664 3.507 5.664 7.412-11.503-2.437-22.407-13.381-17.461-9.622-6.847-16.282 3.306-21.429 3.195-.232-5.574-2.677-8.389-2.677-8.389 8.56-7.955 3.003-20.467 13.248-24.219 7.716-2.826 11.232 6.216 13.75 13.265 2.518 7.05 5.182 6.6 5.182 6.6 3.223-1.106 2.77-5.023 2.619-6.046-.983-6.744-.279-11.983-.279-11.983h.81c.402 6.948 6.741 7.552 6.741 7.552-.548 3.899-2.11 6.335-3.259 7.654 19.666-3.286 12.968-20.061 12.968-20.061 9.229-8.971-12.424-38.725-22.674-39.333-2.937-.174-3.344 1.873-3.344 1.873-1.827-1.521-4.996-2.724-4.996-2.724-3.624-1.812-9.17-2.696-9.17-2.696s10.338-10.265 19.403-23.759z"/><path fill="#C12033" d="M251.338 260.045s-.137-2.553.468-7.187c0 0-1.469-.723-2.744-2.738 0 0 .253 5.609 2.276 9.925z"/><path fill="#FFF" d="M268.438 253.277c.097-2.872-2.1-4.598-3.315-5.329-1.049.161-2.142.49-3.309.71l.001.004c3.952 1.81 6.623 4.615 6.623 4.615z"/><path fill="#C8C7C7" d="M270.646 254.879c-.251.251-.631.431-1.035.561 2.824-4.454-.738-6.847-.738-6.847l-.453-.191c-1.076-.603-2.162-.628-3.297-.453 1.216.731 3.412 2.457 3.314 5.329 0 0-2.671-2.806-6.622-4.615l-.001-.004c-1.329.251-2.754.355-4.328-.124-1.243-.377-8.786-2.703-11.328-10.333-2.887 4.335-3.074 9.435-3.074 9.435-6.411-1.523-10.767.777-13.578 3.629 1.623-1.115 3.682-1.813 6.358-1.904 11.006-.379 11.109 15.452 16.007 20.805.839-4.021-2.554-11.659-2.554-11.659-3.626-8.764-2.513-15.401-2.513-15.401 3.425 8.564 10.237 10.521 10.237 10.521-.101 5.945 6.244 7.141 6.244 7.141.808 2.82-.423 5.877-.423 5.877 3.818-.874 9.396-3.821 7.784-11.767zm-6.573 10.783c.602-1.265 1.228-3.201 1.174-5.769 0 0-4.271-.542-4.635-4.635 0 0 1.836 2.872 6.025 3.272.001.001.717 4.696-2.564 7.132z"/><path fill="#C12033" d="M259.416 242.6a1.905 1.905 0 01-1.813 1.33 1.914 1.914 0 01-1.913-1.914c0-.094.015-.183.027-.271a1.55 1.55 0 01-.624-1.241 1.556 1.556 0 013.083-.304c.048.016.098.024.144.044a10.766 10.766 0 01-.492-2.357 3.645 3.645 0 00-.517-.039 3.832 3.832 0 000 7.665 3.824 3.824 0 003.088-1.568 11.19 11.19 0 01-.983-1.345z"/><path fill="#FFF" d="M256.649 238.947c-.859 0-1.556.696-1.556 1.556 0 .509.247.957.624 1.241.261.196.581.316.932.316a1.559 1.559 0 001.528-1.862 1.558 1.558 0 00-1.528-1.251z"/><path fill="#C8C7C7" d="M268.13 323.632c-7.615-3.579-9.398-6.012-15.241-9.136-3.972-2.124-10.679-3.122-15.917-7.203-4.107-3.198-6.789-5.949-8.516-8.05-1.244.238-2.095.722-2.677 1.308-.792.797-1.085 1.782-1.17 2.608 6.176 4.118 7.487 7.481 7.487 7.481-10.175 3.323-12.754 7.66-12.754 7.66 2.952 3.067 6.044.527 6.044.527 4.233-3.034 8.361-3.734 8.361-3.734 15.313 2.821 20.605 16.427 20.605 16.427s-2.471 3.226-1.752 4.704c.623 1.279.858 2.342.908 3.185.091 1.527-.438 2.326-.438 2.326s6.237-1.851 6.237-6.938c0-5.309-3.355-10.569-6.264-14.132-2.224-2.724-4.186-4.457-4.186-4.457 7.833 3.878 10.074 8.37 10.074 8.37 3.482-.009 7.84 2.381 7.84 2.381s-1.847 2.196.975 4.212c1.126.804 1.758 1.597 2.116 2.263.539 1.004.454 1.715.454 1.715 2.426-2.025 2.995-4.02 2.995-6.145s-1.683-3.727-5.181-5.372zM247.33 284.12a8.36 8.36 0 011.952 2.366c.624 1.13 1.054 2.537 1.054 4.302 0 .544-.045 1.042-.122 1.504 2.456-1.774 4.474-1.723 5.679-1.413.774.199 1.217.504 1.217.504-.397-7.869-5.986-8.061-9.78-7.263zM250.102 292.844a6.107 6.107 0 01-.768 1.836c-.965 1.525-2.484 2.292-3.899 2.669.079.143.104.225.104.225 2.83-.381 4.651.531 5.735 1.45.923.782 1.313 1.57 1.313 1.57 1.548-2.936-1.552-6.714-2.485-7.75z"/><path fill="#C8C7C7" d="M243.85 285.227c-7.782-5.518-13.235.113-18.539 2.465-.963.427-1.922.746-2.888.871-7.491 2.51-13.403 3.028-16.888 3.046a55.83 55.83 0 01-2.128.042c-.649 2.899-2.038 6.305-4.763 9.931 1.708-.608 4.99-1.646 7.359-1.595 0 0 .695-5.232 11.072-6.844 0 0-5.065 1.957-7.395 6.921-3.33 7.761.331 11.267.331 11.267-1.005-2.955.366-5.867.366-5.867 8.866 2.922 5.839-6.782 5.839-6.782 5.944-5.643 9.336-3.877 9.336-3.877 7.758-5.943 14.81-5.226 14.81-5.226s-1.896 3.333 1.428 4.944c.466.226.87.447 1.229.664a8.195 8.195 0 001.563-.217c1.644-.403 3.382-1.481 3.382-4.245 0-2.614-4.114-5.498-4.114-5.498z"/><path fill="#C12033" d="M306.229 52.783s-2.362 2.564-2.945 10.214c-.456 5.992-2.118 11.235-4.155 15.594-6.211 14.404-19.118 26.848-28.788 42.716-1.533 2.834-3.37 6.251-5.234 9.767a87.931 87.931 0 00-.849 1.896c-12.734 29.619-23.466 52.655-45.126 73.016 1.306-.04 2.581-.079 3.813-.103 1.983-.038 3.847-.039 5.506.057 26.921-26.929 29.695-45.877 33.775-55.489a198.169 198.169 0 011.883-4.294c4.545-10.043 11.871-23.921 27.517-47.742 17.998-27.403 14.603-45.632 14.603-45.632z"/><path fill="#C12033" d="M248.867 214.048c-1.512.528-1.767 2.568-1.767 2.568-15.166-10.723-34.105-5.483-41.36-6.655-14.503-2.342-15.945-4.972-21.709-14.872-11.215-19.266-26.648-34.531-37.073-50.524-4.338-6.655-7.529-22.894-8.537-32.162-1.008-9.27-3.708-10.982-11.214-22.641-7.508-11.658-6.736-21.841-6.736-21.841-5.743 17.026 3.767 32.594 3.767 32.594-17.228-14.91-22.204-32.57-22.204-32.57s-9.195 9.566-7.986 29.581c0 0-3.512-5.253-5.393-10.492 0 0-8.213 16.546-4.815 33.596 0 0-3.805-2.275-7.792-9.403 0 0 .538 13.971 7.792 24.984 0 0-4.299-1.746-7.12-3.76 0 0 1.119 22.718 33.223 41.659 0 0-15.665 43.883 12.947 67.524 0 0 .872 8.059 9.125 9.124 0 0 1.871 6.967 9.125 4.415 0 0 1.635 3.063 7.998 1.924 4.354 15.32-23.874 28.895-35.427 41.332-5.252 5.654-9.596 11.675-12.649 17.162v9.842c4.172-8.176 12.007-19.412 25.495-25.88 0 0-4.97-.403-12.627 4.703 0 0 18-18.001 37.343-25.927 0 0-.135-12.491 8.731-18.268 0 0-12.189 20.462 4.987 35.687-1.511 7.354.129 12.134.129 12.134 2.216-6.75 7.513-9.441 7.513-9.441-1.41 6.046 1.472 11.773 1.472 11.773 1.712-3.626 4.532-4.8 4.532-4.8 10.376 12.492 14.816-1.021 14.816-1.021a.03.03 0 00.007-.005.03.03 0 00-.008.004l.011-.006a24.12 24.12 0 011.156-.769c.784-.616 1.844-1.633 2.793-3.163 2.053-3.31 3.584-9.023.673-18.296 0 0-.072 5.635-2.922 10.88 0 0 2.089-5.993-3.552-20.501 0 0-1.787 3.476-.679 7.605 0 0-7.951-13.221 1.318-25.108 0 0-3.535 9.191 4.223 16.916 0 0 7.71 2.466 14.012-7.21 0 0-.015 4.745-2.079 8.443 0 0 8.059-3.67 10.126-14.941 0 0-2.282.321-3.683 1.641 0 0 1.696-6.167 10.469-9.014 0 0-3.664 4.003-5.458 13.183-1.795 9.18-8.456 14.867-16.617 18.495 0 0 .216.578.402 1.611 6.409-1.899 10.47-4.774 10.47-4.774 3.225 6.046 2.373 8.482 2.373 8.482 1.39-.334 2.441-.6 3.214-.8.043-7.483-3.832-10.146-3.832-10.146 8.448-3.618 5.429-20.005 13.633-25.648 0 0 .044-.036.004-.008 2.812-2.852 7.167-5.152 13.578-3.629 0 0 .188-5.1 3.074-9.435l.005.016a15.87 15.87 0 01-.661-2.805s1.208 2.508 4.834 4.456c0 0 .84-4.185 5.298-5.593 0 0-1.738-2.534-5.298-4.415 0 0 6.919-.828 9.605 6.021 2.664 6.796 2.812 9.058 9.491 12.26.137-.128.288-.28.45-.468v-.001c.591-.684 1.287-1.777 1.648-3.394 2.382-10.658-18.23-31.777-22.664-30.229zm-104.831 15.304s-8.424-.048-9.629-8.873c0 0-7.538-4.426-6.317-13.862 0 0 2.096 1.235 4.75.776 0 0-3.583-1.658-5.595-8.87 0 0 1.507.136 3.411-.283 0 0-6.925-3.498-5.552-10.101 0 0-4.634-2.652-3.307-8.074 0 0-5.499-2.823-3.929-9.756 0 0-6.039-2.9-3.934-9.862 0 0-2.955-1.24-3.905-5.153 0 0-6.08-1.614-5.566-8.279 0 0-7.288-3.904-4.428-12.833 0 0-7.896-8.005-.01-19.119 0 0-3.063-10.968 7.224-12.891 0 0 1.02-3.831-.647-9.03 2.537 3.275 5.563 8.018 6.432 15.419.935 7.953 2.311 12.729 5.974 19.394 0 0-9.755-6.458-12.149-21.753 0 0-10.529 8.053 9.388 28.871 0 0-10.531-3.75-14.531-14.894 0 0-7.773 12.67 15.772 20.773 0 0-5.138 1.963-14.45-4.196 0 0 .299 11.091 16.611 9.715 0 0-1.87 3.391-11.496 1.531 0 0 1.421 6.779 14.843 5.445 0 0-1.43 3.393-7.781 2.756 0 0 .665 4.57 12.669 4.809 0 0-5.463 4.136-10.614 1.832 0 0 .722 7.779 17.771 6.151 0 0-5.717 5.435-12.992 3.453 0 0 3.096 10.227 20.114 5.925 0 0-3.924 4.913-16.366 4.483 0 0 2.143 8.348 22.089 2.717 0 0-7.443 7.235-18.451 5.555 0 0 4.068 10.391 25.112 3.203 0 0-4.475 6.654-20.96 6.755 0 0 5.912 10.831 25.97 1.125 0 0-8.519 9.219-23.722 9.252 0 0 2.344 14.335 30.333-1.455 0 0-7.246 11.08-24.321 12.174 0 0 11.002 11.962 30.952-6.091 0 0-2.418 11.261-21.024 13.824 0 0 13.871 9.471 28.921-8.261-4.608 18.948-26.683 18.063-36.66 7.698zM269.88 247.67c-.001.001.001.001.002.002-.001-.001-.003-.001-.002-.002z"/><g fill="#54575A"><path d="M254.209 307.509h-1.148v-.615h3.044v.615h-1.16v3.416h-.735v-3.416zM259.966 309.28c-.024-.521-.054-1.148-.048-1.699h-.018c-.132.497-.3 1.041-.479 1.549l-.587 1.746h-.567l-.539-1.723a19.436 19.436 0 01-.406-1.572h-.012a97.209 97.209 0 01-.072 1.723l-.09 1.621h-.688l.27-4.031h.969l.526 1.621c.144.472.269.95.371 1.399h.018c.107-.438.245-.934.4-1.406l.557-1.614h.957l.233 4.031h-.718l-.077-1.645z"/></g></svg>